<svg width="360" height="360" viewBox="0 0 360 360" fill="none" xmlns="http://www.w3.org/2000/svg">
<rect width="360" height="360" rx="80" fill="#1D74E7"/>
<path d="M263.299 247.7C264.099 246.6 264.399 245.2 264.399 243.6C264.399 242 263.999 240.7 263.299 239.7C262.599 238.7 261.699 237.9 260.699 237.4C259.699 236.9 258.699 236.6 257.799 236.6H246.799V258.3H251.499V251H256.199L259.999 258.3H265.199L260.699 249.9C261.799 249.4 262.599 248.7 263.299 247.7ZM276.699 238.7C275.499 235.9 273.799 233.4 271.699 231.2C269.499 229.1 266.999 227.4 264.199 226.2C261.299 224.9 258.299 224.3 254.999 224.3C251.699 224.3 248.699 224.9 245.899 226.1C242.999 227.3 240.499 229 238.399 231.2C236.199 233.3 234.499 235.8 233.299 238.7C232.099 241.5 231.499 244.5 231.499 247.8C231.499 251.1 232.099 254.1 233.299 256.9C234.499 259.7 236.199 262.2 238.299 264.4C240.499 266.6 242.999 268.2 245.799 269.4C248.599 270.6 251.699 271.2 254.899 271.2C258.099 271.2 261.199 270.6 263.999 269.4C266.799 268.2 269.299 266.5 271.499 264.4C273.699 262.2 275.299 259.8 276.499 256.9C277.699 254.1 278.299 251 278.299 247.8C278.299 244.6 277.899 241.5 276.699 238.7ZM270.499 256.8C268.899 259.5 266.699 261.7 263.999 263.3C261.299 264.9 258.299 265.7 254.999 265.7C251.699 265.7 248.699 264.9 245.999 263.3C243.299 261.7 241.099 259.5 239.499 256.8C237.899 254.1 237.099 251.1 237.099 247.8C237.099 244.5 237.899 241.5 239.499 238.8C241.099 236.1 243.299 233.9 245.999 232.3C248.699 230.7 251.699 229.9 254.999 229.9C258.299 229.9 261.299 230.7 263.999 232.3C266.699 233.9 268.899 236.1 270.499 238.8C272.099 241.5 272.899 244.5 272.899 247.8C272.899 251.1 272.099 254.1 270.499 256.8ZM251.499 240.2H255.999C256.599 240.2 257.199 240.4 257.999 240.9C258.799 241.4 259.099 242.3 259.099 243.6C259.099 244.9 258.699 245.9 257.999 246.5C257.299 247.1 256.599 247.5 255.899 247.5H251.499V240.2ZM147.799 141.7C131.199 141.7 116.099 147.9 104.699 157.9V97.8C104.599 91.4 99.4992 86.3 93.1992 86.3C86.7992 86.3 81.6992 91.4 81.6992 97.8V209.3C82.4992 245 111.899 273.7 147.599 273.7C183.899 273.7 213.499 244.2 213.499 207.8C213.399 171.5 184.099 141.7 147.799 141.7ZM147.799 250.9C123.999 250.9 104.699 231.6 104.699 207.8C104.699 184 123.999 164.7 147.799 164.7C171.599 164.7 190.899 184 190.899 207.8C190.899 231.6 171.599 250.9 147.799 250.9Z" fill="white"/>
</svg>
